<svg width="7" height="4" viewBox="0 0 7 4" fill="none" xmlns="http://www.w3.org/2000/svg">
<path fill-rule="evenodd" clip-rule="evenodd" d="M4.03673 0.253496C3.87446 0.0898395 3.6602 2.7968e-07 3.43052 2.9976e-07C3.2014 3.1979e-07 2.986 0.0898396 2.82488 0.253496L0.169782 3.01277C-0.0536185 3.2388 -0.0536185 3.60445 0.169782 3.83048C0.392612 4.05651 0.754281 4.05651 0.977682 3.83048L3.43052 1.27549L5.88393 3.83048C6.10733 4.05651 6.46842 4.05651 6.69182 3.83048C6.91523 3.60445 6.91523 3.2388 6.69182 3.01277L4.03673 0.253496Z" fill="currentColor"/>
<path fill-rule="evenodd" clip-rule="evenodd" d="M4.03673 0.253496C3.87446 0.0898395 3.6602 2.7968e-07 3.43052 2.9976e-07C3.2014 3.1979e-07 2.986 0.0898396 2.82488 0.253496L0.169782 3.01277C-0.0536185 3.2388 -0.0536185 3.60445 0.169782 3.83048C0.392612 4.05651 0.754281 4.05651 0.977682 3.83048L3.43052 1.27549L5.88393 3.83048C6.10733 4.05651 6.46842 4.05651 6.69182 3.83048C6.91523 3.60445 6.91523 3.2388 6.69182 3.01277L4.03673 0.253496Z" fill="currentColor"/>
</svg>
